# xmcd CD database file
#
# Track frame offsets:
#	150
#	23115
#	41793
#	69815
#	108938
#	121753
#	145410
#	174028
#	199358
#	221448
#	248008
#	264315
#	268933
#
# Disc length: 3895 seconds
#
# Revision: 0
# Processed by: cddbd v1.5PL3 Copyright (c) Steve Scherf et al.
# Submitted via: CDex 1.60beta1
#
DISCID=b40f350d
DTITLE=Yve Evans - 4 Jaz C Me
DYEAR=1990
DGENRE=Jazz
TTITLE0=Misty
TTITLE1=What A Difference A Day Makes
TTITLE2=Fever
TTITLE3=Someone That I Used To Love
TTITLE4=I'm Beginning To See The Light
TTITLE5=Moondance
TTITLE6=My Funny Valentine
TTITLE7=Miss Otis Regrets
TTITLE8=Lady Is A Tramp - Ain't Misbehavin' - Satin Doll
TTITLE9=For Me There's Only You
TTITLE10=Feet's Too Big
TTITLE11=Your Smilin' Face
TTITLE12=His Eye Is On The Sparrow
EXTD=YEAR: 1990
EXTT0=
EXTT1=
EXTT2=
EXTT3=
EXTT4=
EXTT5=
EXTT6=
EXTT7=
EXTT8=
EXTT9=
EXTT10=
EXTT11=
EXTT12=
PLAYORDER=
